<svg version="1.0" xmlns="http://www.w3.org/2000/svg"
width="920.000000pt" height="905.000000pt"
preserveAspectRatio="xMidYMid meet">
<symbol viewBox="0 0 920.000000 905.000000" id="diamond">

<g transform="translate(0.000000,905.000000) scale(0.100000,-0.100000)"
fill="#000000" stroke="none">
<path d="M2143 8618 c-37 -38 -165 -237 -493 -763 -420 -675 -1017 -1639
-1034 -1672 -38 -76 -20 -114 177 -373 283 -371 2448 -3088 3466 -4349 253
-314 271 -331 341 -331 79 0 35 -51 1337 1578 2463 3082 2657 3327 2661 3353
11 72 -106 275 -845 1465 -458 736 -658 1050 -701 1097 l-26 27 -2426 0 -2426
0 -31 -32z m2147 -317 c0 -13 -200 -366 -653 -1151 -294 -510 -367 -631 -379
-624 -14 9 -66 122 -195 424 -77 180 -518 1233 -560 1337 -3 7 7 13 24 16 58
8 1763 7 1763 -2z m2407 -3 c-32 -82 -544 -1302 -633 -1511 -65 -152 -123
-276 -128 -274 -17 6 -1026 1755 -1026 1779 0 3 12 9 28 11 15 2 418 5 896 6
691 1 867 -2 863 -11z m-1922 -469 c207 -352 872 -1509 880 -1531 7 -17 -48
-18 -1054 -18 -584 0 -1061 2 -1061 5 0 16 317 573 651 1146 326 559 400 680
411 677 7 -3 84 -128 173 -279z m-2539 204 c131 -293 724 -1708 724 -1729 0
-6 -17 -14 -37 -18 -50 -8 -1792 -6 -1820 2 -26 8 -67 -62 547 922 377 605
552 880 558 880 1 0 14 -26 28 -57z m4897 -155 c391 -623 984 -1584 980 -1590
-2 -5 -427 -8 -943 -8 l-939 0 13 38 c7 20 97 240 199 488 366 888 534 1274
554 1274 5 0 66 -91 136 -202z m-4378 -1945 l351 -6 292 -1026 c851 -2986 801
-2808 780 -2795 -14 9 -2181 2723 -2870 3594 -164 207 -176 226 -156 232 31 8
1166 10 1603 1z m2880 -2 c89 -6 90 -6 87 -31 -5 -57 -1086 -3862 -1118 -3940
-9 -21 -1 -47 -405 1365 -607 2123 -733 2571 -725 2591 3 8 29 14 68 17 114 6
2001 5 2093 -2z m2412 3 c22 -6 21 -9 -25 -68 -332 -420 -1129 -1420 -2181
-2735 -416 -519 -772 -964 -790 -987 -19 -24 -37 -42 -39 -39 -4 4 37 152 233
845 68 239 160 566 205 725 87 308 340 1198 521 1835 60 212 113 392 118 400
5 10 31 17 82 21 101 7 1848 10 1876 3z"/>
</g>
</symbol>
</svg>
